<?xml version="1.0" standalone="no"?>
<!DOCTYPE svg PUBLIC "-//W3C//DTD SVG 20010904//EN"
 "http://www.w3.org/TR/2001/REC-SVG-20010904/DTD/svg10.dtd">
<svg version="1.0" xmlns="http://www.w3.org/2000/svg"
 width="1080.000000pt" height="1080.000000pt" viewBox="0 0 1080.000000 1080.000000"
 preserveAspectRatio="xMidYMid meet">

<g transform="translate(0.000000,1080.000000) scale(0.100000,-0.100000)"
fill="#000000" stroke="none">
<path d="M5377 10633 c-4 -3 -7 -63 -7 -132 -1 -69 -5 -171 -10 -226 -17 -176
-37 -592 -29 -600 3 -2 56 -5 119 -7 l115 -3 8 170 c4 93 12 174 17 179 6 6
58 5 137 -2 71 -7 163 -12 206 -12 92 0 92 0 92 110 l0 75 -190 7 c-104 5
-200 10 -212 13 -22 5 -23 10 -23 108 0 56 4 107 8 113 5 7 79 8 232 3 124 -4
227 -5 228 -4 9 8 22 84 22 126 l0 45 -152 12 c-84 7 -223 14 -308 17 -85 3
-176 8 -201 10 -25 3 -48 2 -52 -2z"/>
<path d="M4805 10371 c-37 -17 -105 -83 -131 -127 -11 -17 -12 -15 -19 21 -12
71 -8 69 -93 62 -42 -4 -92 -9 -111 -13 l-34 -7 6 -66 c3 -37 12 -102 20 -146
8 -44 22 -123 31 -175 9 -52 21 -124 27 -160 6 -36 14 -86 18 -113 4 -26 12
-52 18 -58 14 -14 198 8 213 26 7 8 5 40 -6 101 -8 49 -19 114 -24 144 -4 31
-13 74 -20 97 -26 87 40 184 149 218 61 20 62 21 57 50 -4 17 -9 50 -12 75
-12 101 -16 104 -89 71z"/>
<path d="M6210 10335 c0 -10 -7 -38 -15 -64 -28 -87 -78 -306 -90 -387 -20
-149 16 -239 121 -296 93 -51 201 -49 283 6 l48 32 -1 -60 -1 -61 85 -18 c47
-10 94 -21 106 -23 18 -5 22 3 38 73 21 94 49 208 96 403 12 47 27 112 35 145
8 33 17 68 20 77 5 13 0 19 -22 24 -15 3 -63 15 -106 26 -88 22 -102 18 -112
-35 -11 -59 -47 -212 -60 -257 -7 -25 -16 -57 -19 -72 -9 -38 -65 -94 -108
-106 -47 -13 -109 2 -138 33 -41 44 -34 135 26 339 8 26 14 55 14 63 0 8 7 37
16 64 10 29 13 54 8 59 -8 7 -61 20 -196 47 -22 4 -28 1 -28 -12z"/>
<path d="M7245 10316 c-8 -19 -15 -38 -15 -41 0 -3 -8 -25 -19 -48 -10 -23
-42 -103 -71 -177 -29 -74 -56 -142 -60 -151 -4 -8 -20 -47 -35 -85 -14 -38
-30 -78 -35 -89 -38 -83 -120 -298 -120 -312 0 -13 26 -28 101 -57 55 -21 104
-35 108 -30 4 5 18 36 30 69 13 33 31 78 41 100 9 22 24 58 32 80 9 22 30 74
47 115 16 41 47 118 67 170 20 52 45 114 55 137 11 23 19 47 19 53 0 7 6 24
14 38 29 54 66 161 60 176 -3 8 -42 28 -87 44 -45 17 -90 33 -100 37 -13 6
-20 -1 -32 -29z"/>
<path d="M3955 10191 c-249 -46 -387 -239 -331 -461 36 -140 93 -215 203 -266
60 -29 83 -34 143 -34 111 0 246 48 322 114 40 35 99 116 92 127 -3 5 -36 25
-73 44 l-68 34 -37 -45 c-83 -99 -202 -119 -286 -47 -22 19 -40 38 -40 43 0 4
66 30 148 56 81 26 151 51 156 56 6 4 18 8 28 8 21 0 139 39 151 50 11 10 -14
93 -43 145 -31 57 -97 123 -150 150 -50 25 -152 37 -215 26z m100 -181 c33
-20 65 -60 65 -80 0 -13 -44 -32 -153 -66 -48 -14 -90 -30 -92 -34 -3 -5 -15
-6 -26 -3 -19 5 -21 11 -15 57 13 116 130 182 221 126z"/>
<path d="M7669 10077 c-23 -45 -74 -145 -114 -222 -258 -498 -304 -593 -292
-608 15 -18 161 -97 180 -97 8 0 40 51 74 118 53 105 227 443 354 689 34 67
44 95 36 101 -12 10 -148 81 -180 94 -14 6 -24 -7 -58 -75z"/>
<path d="M3168 9876 c-101 -36 -164 -94 -197 -181 l-17 -46 -19 36 c-11 19
-26 35 -33 35 -22 0 -192 -94 -192 -106 0 -11 64 -138 80 -159 4 -5 25 -41 45
-80 21 -38 50 -92 65 -120 15 -27 49 -90 75 -140 26 -49 51 -94 55 -100 7 -10
71 -127 119 -219 28 -53 45 -65 72 -48 10 6 49 28 88 47 41 21 71 43 71 51 0
15 -18 50 -118 235 l-41 75 88 -4 c77 -4 94 -1 143 21 69 32 139 100 169 164
33 71 33 196 -1 278 -52 130 -141 223 -248 261 -47 17 -156 17 -204 0z m128
-213 c20 -10 50 -41 74 -75 36 -53 40 -65 40 -120 0 -91 -35 -138 -122 -167
-124 -41 -258 114 -227 260 11 51 38 83 96 110 42 20 85 17 139 -8z"/>
<path d="M8366 9566 c-107 -40 -186 -142 -186 -242 0 -56 39 -141 119 -263 99
-149 108 -169 87 -210 -9 -17 -25 -35 -36 -41 -83 -45 -239 118 -295 308 -9
28 -20 52 -25 52 -4 0 -45 -17 -90 -37 l-82 -37 6 -44 c7 -53 66 -172 114
-231 156 -191 337 -276 484 -225 63 21 118 71 152 138 26 50 28 64 24 125 -6
76 -31 130 -115 248 -48 69 -93 158 -93 186 0 10 12 29 26 44 53 53 129 8 220
-128 24 -36 53 -87 64 -113 17 -38 24 -45 38 -37 9 5 48 23 85 40 37 17 71 39
74 48 11 29 -64 158 -138 237 -140 150 -318 225 -433 182z"/>
<path d="M2418 9370 c-166 -42 -332 -218 -353 -375 -18 -141 87 -317 230 -384
188 -89 439 17 543 229 24 49 27 66 27 160 0 98 -2 109 -30 159 -73 132 -184
209 -312 216 -38 2 -85 0 -105 -5z m106 -224 c49 -20 101 -79 124 -142 20 -52
21 -57 6 -97 -21 -55 -72 -103 -124 -117 -111 -30 -240 84 -240 212 0 120 118
193 234 144z"/>
<path d="M1523 8975 c-37 -42 -68 -79 -68 -84 0 -8 256 -250 375 -355 25 -22
101 -92 170 -156 170 -159 198 -182 209 -176 5 3 40 41 79 84 l71 79 -167 155
c-92 85 -219 201 -282 258 -63 57 -154 141 -201 187 -48 46 -93 83 -102 83 -9
0 -46 -34 -84 -75z"/>
<path d="M9056 8925 l-74 -65 -29 30 c-15 17 -34 30 -41 30 -15 0 -102 -70
-102 -83 0 -4 12 -23 26 -42 30 -40 26 -49 -45 -109 -122 -104 -213 -195 -231
-232 -27 -55 -26 -126 4 -189 36 -77 150 -175 204 -175 13 0 31 20 56 61 37
63 43 79 26 79 -5 0 -25 14 -45 31 -65 57 -47 88 155 264 l65 56 68 -72 68
-73 44 44 c25 24 45 53 45 63 0 10 -25 47 -55 80 l-55 62 76 70 76 70 -67 75
c-37 41 -73 78 -80 83 -9 5 -39 -14 -89 -58z"/>
<path d="M1518 8434 c-110 -33 -244 -181 -270 -298 -5 -23 -12 -54 -15 -69 -8
-39 16 -143 43 -192 36 -63 120 -140 193 -176 60 -30 74 -33 156 -33 78 0 98
4 147 28 114 56 227 212 249 343 10 65 3 143 -15 142 -6 0 -40 -6 -76 -13
l-65 -12 -6 -54 c-9 -74 -32 -123 -78 -169 -27 -27 -51 -41 -80 -46 -48 -8
-101 2 -101 18 0 7 41 71 91 142 50 72 115 165 145 207 l53 77 -25 20 c-15 11
-56 35 -93 52 -56 27 -79 33 -151 35 -47 2 -93 1 -102 -2z m125 -206 c17 -9
17 -11 -5 -46 -12 -20 -36 -56 -53 -79 -16 -23 -45 -62 -63 -87 -18 -26 -37
-46 -42 -46 -5 0 -21 18 -35 40 -54 86 -15 200 80 232 23 8 92 0 118 -14z"/>
<path d="M9290 8333 l-44 -67 29 -20 c105 -75 175 -168 175 -231 0 -40 -32
-95 -55 -95 -8 0 -46 47 -85 104 -105 155 -170 206 -260 206 -48 0 -123 -36
-162 -77 -57 -60 -71 -136 -42 -232 21 -72 118 -173 184 -192 25 -7 46 -14 48
-15 2 -1 -8 -13 -22 -27 -14 -15 -26 -30 -26 -35 0 -4 23 -43 50 -85 35 -54
56 -77 70 -77 11 0 69 32 128 72 59 39 152 101 206 138 55 36 113 83 129 102
85 105 55 279 -72 423 -44 49 -141 135 -179 157 l-28 17 -44 -66z m-133 -318
c12 -9 45 -50 73 -92 l50 -77 -22 -23 c-17 -18 -32 -23 -71 -23 -82 0 -146 56
-155 135 -4 37 -1 47 21 69 30 30 71 34 104 11z"/>
<path d="M1022 7806 c-23 -48 -42 -98 -42 -111 0 -17 39 -60 153 -165 83 -79
166 -152 183 -163 18 -12 37 -29 43 -39 11 -17 7 -18 -46 -12 -32 3 -81 10
-108 15 -51 9 -249 37 -336 46 l-46 5 -21 -44 c-62 -134 -73 -160 -67 -166 4
-4 75 -12 158 -18 84 -7 213 -17 287 -22 74 -6 180 -12 235 -14 l100 -3 52
105 51 105 -102 105 c-56 58 -181 186 -278 284 l-175 179 -41 -87z"/>
<path d="M9538 7621 c-45 -15 -151 -77 -174 -103 -57 -62 -104 -173 -104 -244
0 -104 68 -252 149 -326 57 -52 149 -97 170 -84 12 8 31 96 31 147 0 36 -3 40
-39 55 -94 37 -133 164 -77 249 42 63 156 104 237 85 54 -13 81 -38 104 -98
16 -40 16 -68 0 -133 -6 -24 0 -31 60 -73 36 -25 72 -46 80 -46 23 0 43 40 56
113 29 157 -54 341 -194 428 -50 32 -57 33 -162 36 -60 1 -122 -2 -137 -6z"/>
<path d="M845 7011 c-85 -23 -174 -92 -211 -164 -38 -72 -56 -159 -52 -246 4
-81 12 -109 52 -179 34 -60 148 -142 198 -142 13 -1 34 -7 48 -15 34 -20 152
-19 198 1 115 48 172 99 216 189 53 108 67 267 31 363 -11 29 -24 57 -30 62
-17 14 -148 -68 -142 -89 30 -103 31 -111 19 -158 -17 -63 -48 -107 -93 -132
-38 -22 -99 -28 -99 -11 0 5 11 44 26 87 14 43 31 105 39 138 8 33 23 92 35
130 11 39 23 86 26 106 6 34 4 37 -27 49 -42 15 -193 22 -234 11z m72 -289
c-10 -43 -25 -102 -32 -134 -16 -71 -22 -80 -47 -72 -42 13 -98 98 -98 149 0
29 31 95 54 114 27 22 99 39 122 29 l21 -10 -20 -76z"/>
<path d="M10195 6939 c-132 -32 -262 -66 -290 -74 -27 -8 -139 -35 -248 -61
-186 -44 -198 -48 -194 -68 3 -12 12 -54 21 -95 9 -41 22 -81 28 -89 12 -14
19 -14 144 10 60 11 63 10 110 -17 l48 -28 -119 -115 -119 -114 17 -76 c10
-43 22 -101 28 -129 6 -29 16 -53 22 -53 6 0 90 81 187 180 96 99 182 180 190
180 14 0 201 -102 295 -160 l38 -23 -6 29 c-22 113 -30 144 -43 185 -9 28 -24
51 -37 57 -12 6 -44 24 -72 39 -27 16 -85 48 -128 72 -43 24 -75 47 -70 52 4
4 46 17 93 29 410 101 395 97 403 121 9 27 -32 201 -48 205 -6 1 -118 -24
-250 -57z"/>
<path d="M555 6220 c-82 -24 -143 -61 -202 -120 -102 -102 -136 -208 -153
-480 -6 -102 -14 -206 -17 -231 l-5 -46 114 -7 c62 -4 160 -11 218 -17 58 -5
188 -14 290 -20 102 -6 222 -13 268 -16 l82 -4 0 98 c0 54 5 118 11 143 6 25
11 106 12 180 1 142 -8 189 -57 289 -45 94 -196 221 -262 221 -11 0 -37 7 -59
15 -54 19 -167 17 -240 -5z m225 -241 c59 -13 120 -56 167 -118 l33 -43 0
-131 c0 -73 -4 -138 -8 -145 -8 -12 -114 -8 -437 18 -55 4 -110 8 -123 9 -23
1 -23 2 -17 99 9 124 18 159 55 210 70 97 185 132 330 101z"/>
<path d="M9694 5432 c-13 -8 -29 -126 -44 -327 -18 -254 14 -378 129 -493 70
-70 139 -107 235 -127 305 -64 551 118 586 435 5 47 14 121 19 165 5 44 11
123 13 175 l3 95 -95 7 c-52 4 -135 12 -185 18 -49 6 -142 15 -205 20 -63 5
-155 14 -205 19 -156 17 -240 21 -251 13z m331 -262 c66 -6 158 -14 205 -20
47 -5 111 -12 143 -15 l57 -6 0 -54 c0 -122 -49 -251 -113 -298 -61 -45 -101
-57 -187 -57 -136 0 -225 51 -275 157 -28 58 -31 101 -14 220 13 92 15 96 43
89 11 -3 75 -10 141 -16z"/>
<path d="M1070 4897 c-52 -51 -141 -134 -197 -186 l-102 -93 -68 44 c-37 25
-82 53 -100 64 -17 10 -59 36 -93 57 -35 21 -64 36 -66 34 -2 -2 2 -28 10 -58
7 -30 17 -72 20 -94 15 -92 14 -90 94 -142 42 -28 92 -59 111 -69 44 -25 61
-35 91 -57 31 -22 18 -33 -55 -42 -27 -4 -77 -13 -110 -20 -68 -15 -319 -65
-330 -65 -9 0 4 -101 15 -115 4 -5 10 -30 13 -54 3 -24 9 -47 14 -52 4 -4 42
-1 83 7 41 8 100 19 130 24 30 6 84 16 120 24 36 8 99 22 140 30 79 15 179 36
295 62 39 8 96 19 128 24 102 17 111 30 82 126 -8 27 -15 60 -15 74 -1 47 -8
49 -110 30 l-95 -19 -44 27 c-25 15 -46 32 -48 37 -2 6 51 56 117 113 l119
103 -6 47 c-3 26 -12 65 -19 87 -8 22 -14 54 -15 70 -3 82 -7 81 -109 -18z"/>
<path d="M9735 4456 c-70 -18 -103 -37 -159 -92 -81 -82 -126 -197 -126 -327
0 -91 12 -144 38 -177 l17 -21 65 34 c55 29 65 37 62 58 -14 117 -13 151 3
191 9 24 24 52 33 62 21 23 89 55 118 56 22 0 38 -31 24 -47 -4 -4 -17 -42
-29 -83 -13 -41 -29 -93 -36 -115 -7 -22 -23 -74 -35 -115 -12 -41 -25 -87
-30 -102 -13 -41 6 -55 100 -74 79 -16 89 -16 155 0 92 22 155 63 200 128 44
65 85 192 85 262 0 158 -104 297 -259 345 -87 27 -165 33 -226 17z m256 -283
c59 -50 74 -124 40 -192 -27 -51 -61 -72 -122 -73 -28 0 -52 2 -55 5 -3 2 2
24 10 48 7 24 24 78 36 119 39 135 39 136 91 93z"/>
<path d="M1177 4133 c-8 -12 -27 -124 -27 -152 0 -20 9 -30 41 -45 65 -30 112
-123 95 -190 -9 -37 -62 -94 -110 -118 -56 -29 -161 -30 -198 -3 -50 38 -68
76 -68 144 0 34 5 71 10 81 9 16 0 27 -59 75 -39 30 -74 55 -80 55 -5 0 -22
-26 -37 -57 -46 -97 -34 -237 29 -360 29 -56 106 -130 164 -159 50 -24 70 -28
148 -28 100 0 173 21 250 74 115 79 172 215 146 353 -15 85 -71 196 -124 250
-61 61 -164 106 -180 80z"/>
<path d="M9217 3525 c-26 -52 -47 -103 -47 -113 0 -9 44 -65 98 -124 277 -303
415 -448 427 -448 15 0 104 179 98 197 -2 6 -84 85 -180 175 -97 89 -183 170
-192 178 -13 13 -11 15 24 18 21 2 68 -3 104 -12 163 -36 391 -70 403 -58 8 8
98 187 98 195 0 7 -138 26 -320 42 -85 8 -216 21 -290 29 -74 8 -144 15 -155
15 -16 1 -31 -20 -68 -94z"/>
<path d="M1559 3492 c-13 -10 -103 -65 -199 -122 -210 -124 -248 -153 -280
-215 -70 -137 29 -364 221 -509 49 -37 64 -44 76 -35 20 17 73 98 73 112 0 7
-31 39 -68 73 -98 89 -129 162 -101 242 9 28 42 48 60 36 4 -2 34 -48 66 -102
75 -127 133 -185 207 -208 53 -17 59 -17 109 -1 104 33 167 115 167 218 -1
116 -99 246 -215 286 l-30 10 33 19 c18 11 31 24 30 30 -7 26 -104 184 -114
184 -6 0 -22 -8 -35 -18z m88 -355 c37 -40 43 -52 43 -90 0 -78 -72 -119 -127
-73 -30 25 -113 154 -113 175 0 22 54 41 104 37 44 -3 55 -9 93 -49z"/>
<path d="M9021 3051 c-62 -24 -68 -28 -144 -100 -81 -77 -124 -157 -137 -255
-11 -74 -7 -115 11 -127 5 -3 40 -1 78 4 l68 9 6 64 c13 141 124 230 244 198
27 -7 22 -20 -42 -104 -101 -134 -213 -287 -223 -307 -11 -19 -8 -26 15 -48
16 -14 57 -40 93 -57 59 -29 74 -32 160 -33 84 0 101 3 146 27 64 34 152 128
190 204 26 54 29 68 29 164 0 96 -2 110 -28 158 -37 71 -115 143 -195 183 -87
42 -189 50 -271 20z m309 -377 c10 -35 10 -54 1 -84 -14 -46 -68 -97 -113
-105 -42 -8 -113 15 -112 36 1 8 38 66 84 128 l83 112 22 -21 c13 -12 28 -42
35 -66z"/>
<path d="M1922 2862 c-11 -15 -31 -44 -45 -65 l-26 -38 45 -43 c56 -54 57 -77
1 -130 -47 -46 -219 -186 -227 -186 -3 1 -27 30 -55 65 -27 36 -56 67 -63 70
-14 5 -112 -70 -112 -86 0 -5 25 -38 55 -74 30 -35 55 -68 55 -73 0 -4 -31
-34 -70 -66 -38 -31 -70 -63 -70 -70 0 -12 126 -176 135 -176 2 0 39 29 82 65
l78 66 31 -36 c17 -19 35 -35 41 -35 5 0 31 20 58 44 l49 43 -27 36 c-15 20
-27 40 -27 45 0 5 41 42 91 81 124 100 219 190 231 220 5 14 9 56 9 93 0 56
-4 77 -25 112 -30 52 -100 117 -154 145 l-41 21 -19 -28z"/>
<path d="M8476 2473 c-42 -43 -76 -83 -76 -89 0 -6 111 -119 248 -251 136
-131 299 -290 362 -351 l115 -112 78 79 c42 43 77 82 77 88 0 7 -294 297 -632
621 l-96 93 -76 -78z"/>
<path d="M2233 2361 c-68 -23 -117 -61 -150 -119 -25 -42 -28 -57 -28 -132 1
-95 -2 -89 106 -271 58 -99 69 -124 69 -163 0 -38 -4 -48 -26 -63 -64 -41
-162 45 -245 216 -23 47 -43 87 -44 89 -2 2 -58 -21 -132 -54 -17 -8 -36 -14
-42 -14 -19 0 -12 -29 25 -108 41 -87 54 -105 127 -181 118 -123 214 -172 333
-173 111 0 192 52 240 157 43 90 28 154 -73 318 -113 185 -123 218 -78 262 29
30 63 32 114 5 66 -33 147 -157 191 -292 12 -38 23 -68 25 -68 4 0 75 29 100
40 11 5 32 14 48 20 32 11 35 35 12 101 -37 109 -90 193 -175 279 -95 96 -154
131 -253 154 -83 19 -80 19 -144 -3z"/>
<path d="M8205 2166 c-116 -28 -254 -137 -311 -246 -26 -51 -29 -64 -28 -160
0 -94 3 -110 27 -156 40 -76 108 -146 179 -185 60 -32 68 -34 163 -34 97 1
102 2 173 40 110 60 172 120 217 210 76 154 53 290 -70 424 -54 59 -103 88
-177 106 -74 17 -106 18 -173 1z m141 -233 c62 -47 94 -107 94 -176 0 -73 -25
-119 -81 -147 -99 -51 -213 5 -272 133 -9 21 -17 49 -17 63 0 29 36 103 59
122 62 51 155 53 217 5z"/>
<path d="M7447 1989 l-97 -49 14 -33 c7 -17 43 -90 79 -162 37 -71 65 -130 64
-131 -1 -1 -25 2 -52 7 -145 29 -288 -45 -353 -181 -31 -66 -40 -151 -22 -218
38 -138 117 -246 222 -303 57 -31 71 -34 143 -34 70 0 88 4 146 33 68 33 139
99 139 130 0 9 8 27 18 40 l17 22 18 -30 c10 -16 26 -30 35 -30 9 0 54 18 99
41 61 30 83 46 83 61 0 24 -418 850 -443 875 -9 9 -35 0 -110 -38z m104 -529
c78 -40 132 -164 109 -250 -13 -48 -76 -106 -125 -116 -75 -14 -157 32 -197
110 -31 58 -32 163 -2 203 54 72 136 93 215 53z"/>
<path d="M3181 1708 c-19 -35 -69 -124 -111 -198 -140 -246 -213 -374 -244
-430 -16 -30 -47 -84 -67 -119 -20 -35 -35 -70 -32 -77 6 -16 160 -104 182
-104 15 0 61 73 166 265 16 28 51 91 80 140 139 241 255 454 255 468 0 13
-168 117 -189 117 -4 0 -22 -28 -40 -62z"/>
<path d="M3540 1528 c-13 -29 -33 -75 -45 -103 -171 -383 -170 -381 -213 -475
-85 -185 -100 -219 -107 -241 -4 -13 -12 -30 -18 -37 -13 -16 -16 -14 83 -60
126 -59 117 -62 167 48 23 52 58 129 77 170 19 41 53 118 76 170 23 52 48 109
55 125 8 17 47 104 88 195 41 91 71 169 66 174 -10 11 -178 86 -193 86 -7 0
-23 -24 -36 -52z"/>
<path d="M3874 1363 c-9 -32 -20 -74 -25 -93 -4 -19 -18 -66 -30 -105 -12 -38
-27 -92 -33 -120 -7 -27 -18 -63 -24 -78 -7 -16 -12 -37 -12 -48 0 -11 -4 -28
-9 -37 -5 -9 -18 -49 -29 -89 l-20 -71 57 -19 c31 -11 79 -27 107 -35 l51 -15
20 56 c12 31 28 81 37 111 8 30 26 93 40 140 46 165 143 225 249 155 33 -21
51 -75 43 -129 -8 -49 -44 -177 -91 -327 -10 -31 -15 -63 -12 -72 3 -9 31 -23
64 -32 32 -8 78 -22 102 -30 46 -16 60 -10 61 23 0 7 16 68 36 135 19 67 41
145 49 172 8 28 21 73 30 102 55 186 -44 343 -228 360 -72 6 -129 -7 -181 -42
-20 -13 -36 -23 -36 -22 0 1 6 25 14 54 14 54 8 73 -24 73 -8 0 -44 9 -78 20
-101 32 -108 30 -128 -37z"/>
<path d="M6631 1355 c-106 -26 -196 -78 -256 -147 -52 -61 -48 -79 30 -119
l64 -34 42 44 c79 82 182 104 259 56 34 -22 68 -61 58 -70 -2 -1 -34 -12 -73
-24 -70 -22 -97 -30 -235 -71 -172 -50 -175 -52 -172 -89 3 -46 67 -172 105
-209 109 -104 278 -120 440 -43 193 93 258 299 162 516 -40 90 -122 158 -227
189 -65 19 -122 19 -197 1z m249 -430 c0 -49 -34 -112 -73 -135 -21 -13 -50
-20 -86 -20 -49 0 -57 3 -93 40 -64 64 -57 71 132 125 116 33 120 33 120 -10z"/>
<path d="M6058 1216 c-48 -6 -89 -14 -92 -17 -6 -6 20 -233 34 -294 34 -146
-31 -246 -173 -270 -30 -5 -37 -10 -33 -23 3 -9 8 -44 11 -77 12 -117 19 -123
100 -86 39 18 124 102 126 125 1 20 18 -28 18 -54 2 -49 9 -51 120 -39 74 9
104 16 109 27 6 16 -11 199 -27 292 -19 105 -31 195 -41 290 -6 52 -12 105
-15 118 -6 25 -7 25 -137 8z"/>
<path d="M5091 1156 c-6 -14 -15 -83 -21 -153 -15 -186 -14 -182 -58 -177 -20
2 -86 8 -147 14 -60 5 -140 13 -176 16 -76 7 -72 13 -84 -108 l-7 -67 33 -5
c57 -10 199 -25 303 -32 l99 -7 -6 -96 c-2 -53 -8 -104 -12 -113 -9 -22 -36
-23 -220 -3 -77 8 -166 15 -197 15 -66 0 -65 1 -70 -105 l-3 -70 120 -13 c566
-60 570 -60 583 -36 10 19 25 142 42 344 14 177 40 441 49 510 5 38 5 70 0 76
-5 7 -35 15 -67 18 -31 4 -78 9 -104 12 -44 5 -48 4 -57 -20z"/>
</g>
</svg>
